<?xml version="1.0" standalone="no"?>
<!DOCTYPE svg PUBLIC "-//W3C//DTD SVG 20010904//EN"
 "http://www.w3.org/TR/2001/REC-SVG-20010904/DTD/svg10.dtd">
<svg version="1.0" xmlns="http://www.w3.org/2000/svg"
 width="270.000000pt" height="270.000000pt" viewBox="0 0 270.000000 270.000000"
 preserveAspectRatio="xMidYMid meet">

<g transform="translate(0.000000,270.000000) scale(0.100000,-0.100000)"
fill="#000000" stroke="none">
<path d="M170 2360 l0 -339 -40 -80 c-47 -93 -84 -200 -111 -321 -24 -111 -27
-413 -4 -524 23 -109 70 -249 115 -341 l40 -82 0 -336 0 -337 1265 0 1265 0 0
984 c0 541 -3 986 -8 988 -4 2 -27 27 -52 56 -27 32 -62 62 -89 74 -25 11 -62
31 -83 44 -45 29 -47 26 -10 -13 34 -38 126 -202 117 -211 -6 -7 -44 32 -112
115 -22 27 -60 54 -108 79 -96 47 -115 67 -57 58 34 -5 42 -4 42 9 0 9 -16 23
-35 32 -19 9 -39 23 -46 31 -6 8 -17 14 -23 14 -6 0 -26 13 -44 29 -17 16 -42
33 -54 37 -13 4 -37 19 -55 34 -17 16 -41 31 -52 35 -12 3 -21 11 -21 16 0 5
-5 9 -11 9 -7 0 -33 16 -58 35 -25 19 -48 34 -51 33 -3 -2 -17 7 -30 20 -34
32 -138 81 -186 89 -22 3 -75 16 -119 28 -75 21 -250 43 -395 48 -58 2 -62 4
-40 14 19 9 -82 12 -462 12 l-488 1 0 -340z"/>
<path d="M2354 2259 c66 -72 87 -86 134 -88 34 -2 27 26 -13 44 -19 9 -39 23
-46 31 -6 8 -17 14 -23 14 -6 0 -26 13 -44 29 -17 16 -42 33 -54 37 -16 5 -1
-16 46 -67z"/>
</g>
</svg>
